<svg width="22" height="22" viewBox="0 0 22 22" fill="none" xmlns="http://www.w3.org/2000/svg">
<path fill-rule="evenodd" clip-rule="evenodd" d="M2.75 4.125C2.75 3.76033 2.89487 3.41059 3.15273 3.15273C3.41059 2.89487 3.76033 2.75 4.125 2.75H17.875C18.2397 2.75 18.5894 2.89487 18.8473 3.15273C19.1051 3.41059 19.25 3.76033 19.25 4.125V6.03717C19.2499 6.52336 19.0567 6.9896 18.7128 7.33333L13.75 12.2962V19.1015C13.75 19.2734 13.7061 19.4424 13.6224 19.5926C13.5387 19.7427 13.418 19.869 13.2718 19.9594C13.1256 20.0497 12.9587 20.1012 12.787 20.109C12.6153 20.1167 12.4444 20.0804 12.2907 20.0035L8.88342 18.3003C8.69309 18.2052 8.53302 18.0589 8.42114 17.8779C8.30927 17.6969 8.25001 17.4883 8.25 17.2755V12.2962L3.28717 7.33333C2.94333 6.9896 2.7501 6.52336 2.75 6.03717V4.125ZM4.58333 4.58333V6.03717L9.68 11.1338C9.80783 11.2615 9.90924 11.4131 9.97845 11.58C10.0477 11.7469 10.0833 11.9258 10.0833 12.1064V16.8502L11.9167 17.7668V12.1064C11.9167 11.7416 12.0615 11.3914 12.32 11.1348L17.4167 6.03625V4.58333H4.58333Z" fill="#6C6C6C"/>
</svg>
