<svg width="766" height="155" viewBox="0 0 766 155" fill="none" xmlns="http://www.w3.org/2000/svg">
<path fill-rule="evenodd" clip-rule="evenodd" d="M34.2473 91.852C28.3521 89.2144 19.8866 81.682 27.1013 69.4171C28.8318 66.4281 34.4347 60.6597 43.0732 61.3184C47.5388 53.9128 53.5135 47.5197 60.5715 42.5652C60.5147 42.322 60.4521 42.0803 60.3835 41.8403C59.4326 39.463 57.816 33.7576 62.7608 26.1502C64.0287 24.2484 68.1811 20.4447 74.6473 20.4447C78.9265 20.1277 88.0553 21.8711 90.3375 31.3803C90.362 31.4631 90.3879 31.5474 90.4151 31.6331C92.2686 31.4658 94.1458 31.3803 96.0429 31.3803C130.18 31.3803 157.853 59.0535 157.853 93.1901C157.853 127.327 130.18 155 96.0429 155C61.9063 155 34.2331 127.327 34.2331 93.1901C34.2331 92.743 34.2379 92.2969 34.2473 91.852ZM134.08 93.1902C134.08 114.197 117.05 131.227 96.043 131.227C75.0359 131.227 58.0062 114.197 58.0062 93.1902C58.0062 72.183 75.0359 55.1534 96.043 55.1534C117.05 55.1534 134.08 72.183 134.08 93.1902ZM47.546 77.9755C47.546 81.6518 44.5658 84.632 40.8896 84.632C37.2133 84.632 34.2331 81.6518 34.2331 77.9755C34.2331 74.2993 37.2133 71.3191 40.8896 71.3191C44.5658 71.3191 47.546 74.2993 47.546 77.9755ZM76.0736 42.7913C79.7499 42.7913 82.7301 39.8111 82.7301 36.1349C82.7301 32.4586 79.7499 29.4784 76.0736 29.4784C72.3974 29.4784 69.4172 32.4586 69.4172 36.1349C69.4172 39.8111 72.3974 42.7913 76.0736 42.7913Z" fill="#4361EE"/>
<path fill-rule="evenodd" clip-rule="evenodd" d="M116.972 68.5463C114.892 77.9882 115.268 92.5116 127.19 101.891C123.39 115.521 110.884 125.521 96.0428 125.521C78.1868 125.521 63.7115 111.046 63.7115 93.1901C63.7115 75.334 78.1868 60.8588 96.0428 60.8588C104.025 60.8588 111.332 63.7517 116.972 68.5463Z" fill="#4895EF"/>
<path d="M87.4846 110.782C74.5521 103.935 76.7075 90.4958 79.4018 84.6318C80.1625 80.4478 77.1829 80.6696 75.5981 81.3036C70.2729 85.1073 70.5265 94.6165 71.3189 98.8956C73.2208 110.687 80.9866 114.586 84.6318 115.061C88.8158 115.822 88.9109 111.733 87.4846 110.782Z" fill="white"/>
<circle cx="85.1073" cy="75.5982" r="4.27914" fill="white"/>
<circle cx="40.8896" cy="37.0857" r="9.5092" fill="#4361EE"/>
<circle cx="13.3131" cy="40.8896" r="6.65644" fill="#4361EE"/>
<circle cx="25.6749" cy="17.1164" r="4.7546" fill="#4361EE"/>
<circle cx="5.23006" cy="12.8376" r="5.23006" fill="#4361EE"/>
<circle cx="48.9726" cy="6.18098" r="6.18098" fill="#4361EE"/>
<circle cx="101.749" cy="18.0673" r="7.60736" fill="#4361EE"/>
<path d="M217.572 84.0025H246.144V95.0572H217.572V84.0025ZM218.592 116.741H204.817V57.2162H249.801V68.2709H218.592V116.741ZM269.331 116.741V57.2162H283.107V105.517H312.954V116.741H269.331ZM323.365 116.741L349.896 57.2162H363.502L390.118 116.741H375.662L353.893 64.1891H359.335L337.481 116.741H323.365ZM336.63 103.986L340.287 93.5265H370.9L374.641 103.986H336.63ZM431.698 117.762C423.252 117.762 416.647 115.409 411.885 110.704C407.123 105.998 404.742 99.2806 404.742 90.5503V57.2162H418.518V90.0401C418.518 95.7091 419.68 99.7908 422.004 102.285C424.329 104.78 427.588 106.027 431.783 106.027C435.979 106.027 439.238 104.78 441.563 102.285C443.887 99.7908 445.049 95.7091 445.049 90.0401V57.2162H458.655V90.5503C458.655 99.2806 456.274 105.998 451.512 110.704C446.75 115.409 440.145 117.762 431.698 117.762ZM482.472 116.741V57.2162H493.867L528.987 100.074H523.459V57.2162H537.065V116.741H525.755L490.551 73.8832H496.078V116.741H482.472ZM561.353 116.741V57.2162H588.394C594.857 57.2162 600.554 58.4634 605.487 60.9578C610.419 63.3955 614.274 66.8253 617.051 71.2471C619.829 75.669 621.218 80.9129 621.218 86.9788C621.218 92.988 619.829 98.2319 617.051 102.71C614.274 107.132 610.419 110.59 605.487 113.085C600.554 115.522 594.857 116.741 588.394 116.741H561.353ZM575.129 105.432H587.714C591.682 105.432 595.112 104.695 598.003 103.221C600.951 101.69 603.219 99.5357 604.806 96.7579C606.45 93.9801 607.272 90.7203 607.272 86.9788C607.272 83.1805 606.45 79.9208 604.806 77.1996C603.219 74.4218 600.951 72.2959 598.003 70.8219C595.112 69.2913 591.682 68.526 587.714 68.526H575.129V105.432ZM641.812 116.741V57.2162H667.577C672.906 57.2162 677.498 58.0949 681.353 59.8523C685.208 61.553 688.184 64.0191 690.282 67.2504C692.38 70.4818 693.428 74.3368 693.428 78.8153C693.428 83.2372 692.38 87.0638 690.282 90.2952C688.184 93.4698 685.208 95.9075 681.353 97.6083C677.498 99.309 672.906 100.159 667.577 100.159H649.465L655.587 94.1218V116.741H641.812ZM679.652 116.741L664.771 95.1422H679.482L694.534 116.741H679.652ZM655.587 95.6524L649.465 89.1897H666.812C671.064 89.1897 674.239 88.2827 676.336 86.4686C678.434 84.5978 679.482 82.0467 679.482 78.8153C679.482 75.5273 678.434 72.9762 676.336 71.1621C674.239 69.348 671.064 68.4409 666.812 68.4409H649.465L655.587 61.8932V95.6524ZM728.513 116.741V92.4211L731.659 100.755L705.468 57.2162H720.094L740.163 90.6353H731.744L751.898 57.2162H765.419L739.227 100.755L742.289 92.4211V116.741H728.513Z" fill="#4895EF"/>
</svg>
