<svg width="201" height="198" viewBox="0 0 201 198" fill="none" xmlns="http://www.w3.org/2000/svg">
<path fill-rule="evenodd" clip-rule="evenodd" d="M44.3219 117.357C36.8526 114.015 26.1277 104.472 35.2685 88.9324C37.4609 85.1455 44.5597 77.837 55.5044 78.6714C61.1624 69.2882 68.7326 61.1881 77.6754 54.9106C77.6034 54.6026 77.5241 54.2964 77.4373 53.9925C76.2325 50.9804 74.1843 43.7516 80.4494 34.113C82.0558 31.7034 87.3169 26.8841 95.5097 26.8841C100.931 26.4825 112.498 28.6913 115.389 40.7395C115.42 40.8444 115.453 40.9512 115.488 41.0599C117.836 40.8479 120.214 40.7397 122.617 40.7397C165.869 40.7397 200.931 75.8018 200.931 119.053C200.931 162.305 165.869 197.367 122.617 197.367C79.366 197.367 44.3039 162.305 44.3039 119.053C44.3039 118.487 44.3099 117.921 44.3219 117.357ZM170.81 119.053C170.81 145.669 149.233 167.246 122.617 167.246C96.0007 167.246 74.424 145.669 74.424 119.053C74.424 92.4368 96.0007 70.86 122.617 70.86C149.233 70.86 170.81 92.4368 170.81 119.053ZM61.1714 99.7759C61.1714 104.434 57.3955 108.21 52.7376 108.21C48.0798 108.21 44.3039 104.434 44.3039 99.7759C44.3039 95.1181 48.0798 91.3421 52.7376 91.3421C57.3955 91.3421 61.1714 95.1181 61.1714 99.7759ZM97.3167 55.1975C101.975 55.1975 105.75 51.4216 105.75 46.7637C105.75 42.1059 101.975 38.33 97.3167 38.33C92.6588 38.33 88.8829 42.1059 88.8829 46.7637C88.8829 51.4216 92.6588 55.1975 97.3167 55.1975Z" fill="#4361EE"/>
<path fill-rule="evenodd" clip-rule="evenodd" d="M149.135 87.8291C146.499 99.7921 146.976 118.193 162.081 130.078C157.266 147.347 141.422 160.017 122.617 160.017C99.9935 160.017 81.6533 141.677 81.6533 119.053C81.6533 96.4291 99.9935 78.0889 122.617 78.0889C132.731 78.0889 141.989 81.7543 149.135 87.8291Z" fill="#4895EF"/>
<path d="M111.774 141.342C95.388 132.667 98.119 115.639 101.533 108.209C102.496 102.908 98.7214 103.189 96.7133 103.993C89.9663 108.812 90.2876 120.86 91.2916 126.282C93.7013 141.222 103.541 146.161 108.159 146.764C113.46 147.728 113.581 142.547 111.774 141.342Z" fill="white"/>
<circle cx="108.762" cy="96.7637" r="5.42171" fill="white"/>
<circle cx="52.7377" cy="47.9686" r="12.0482" fill="#4361EE"/>
<circle cx="17.7985" cy="52.7883" r="8.43377" fill="#4361EE"/>
<circle cx="33.4611" cy="22.6674" r="6.02412" fill="#4361EE"/>
<circle cx="7.5572" cy="17.2454" r="6.62653" fill="#4361EE"/>
<circle cx="62.9793" cy="8.81182" r="7.83136" fill="#4361EE"/>
<circle cx="129.847" cy="23.8722" r="9.63859" fill="#4361EE"/>
</svg>
