<svg id="visual" viewBox="0 0 900 600" width="900" height="600" xmlns="http://www.w3.org/2000/svg" xmlns:xlink="http://www.w3.org/1999/xlink" version="1.1"><rect x="0" y="0" width="900" height="600" fill="#C2EBF8"></rect><path d="M0 426L16.7 432.5C33.3 439 66.7 452 100 456.8C133.3 461.7 166.7 458.3 200 450.2C233.3 442 266.7 429 300 421.8C333.3 414.7 366.7 413.3 400 418.5C433.3 423.7 466.7 435.3 500 441.2C533.3 447 566.7 447 600 440.8C633.3 434.7 666.7 422.3 700 423.3C733.3 424.3 766.7 438.7 800 440.2C833.3 441.7 866.7 430.3 883.3 424.7L900 419L900 601L883.3 601C866.7 601 833.3 601 800 601C766.7 601 733.3 601 700 601C666.7 601 633.3 601 600 601C566.7 601 533.3 601 500 601C466.7 601 433.3 601 400 601C366.7 601 333.3 601 300 601C266.7 601 233.3 601 200 601C166.7 601 133.3 601 100 601C66.7 601 33.3 601 16.7 601L0 601Z" fill="#4cc9f0"></path><path d="M0 464L16.7 468C33.3 472 66.7 480 100 484.7C133.3 489.3 166.7 490.7 200 482.8C233.3 475 266.7 458 300 452.8C333.3 447.7 366.7 454.3 400 461.3C433.3 468.3 466.7 475.7 500 479.5C533.3 483.3 566.7 483.7 600 478.3C633.3 473 666.7 462 700 458.7C733.3 455.3 766.7 459.7 800 464.7C833.3 469.7 866.7 475.3 883.3 478.2L900 481L900 601L883.3 601C866.7 601 833.3 601 800 601C766.7 601 733.3 601 700 601C666.7 601 633.3 601 600 601C566.7 601 533.3 601 500 601C466.7 601 433.3 601 400 601C366.7 601 333.3 601 300 601C266.7 601 233.3 601 200 601C166.7 601 133.3 601 100 601C66.7 601 33.3 601 16.7 601L0 601Z" fill="#36bdf3"></path><path d="M0 487L16.7 491.5C33.3 496 66.7 505 100 505.7C133.3 506.3 166.7 498.7 200 495.8C233.3 493 266.7 495 300 496C333.3 497 366.7 497 400 494.3C433.3 491.7 466.7 486.3 500 489.3C533.3 492.3 566.7 503.7 600 503.7C633.3 503.7 666.7 492.3 700 489.2C733.3 486 766.7 491 800 496.2C833.3 501.3 866.7 506.7 883.3 509.3L900 512L900 601L883.3 601C866.7 601 833.3 601 800 601C766.7 601 733.3 601 700 601C666.7 601 633.3 601 600 601C566.7 601 533.3 601 500 601C466.7 601 433.3 601 400 601C366.7 601 333.3 601 300 601C266.7 601 233.3 601 200 601C166.7 601 133.3 601 100 601C66.7 601 33.3 601 16.7 601L0 601Z" fill="#2bb1f4"></path><path d="M0 511L16.7 513.7C33.3 516.3 66.7 521.7 100 526.7C133.3 531.7 166.7 536.3 200 538C233.3 539.7 266.7 538.3 300 537.5C333.3 536.7 366.7 536.3 400 538.2C433.3 540 466.7 544 500 540.3C533.3 536.7 566.7 525.3 600 525C633.3 524.7 666.7 535.3 700 537.3C733.3 539.3 766.7 532.7 800 529.7C833.3 526.7 866.7 527.3 883.3 527.7L900 528L900 601L883.3 601C866.7 601 833.3 601 800 601C766.7 601 733.3 601 700 601C666.7 601 633.3 601 600 601C566.7 601 533.3 601 500 601C466.7 601 433.3 601 400 601C366.7 601 333.3 601 300 601C266.7 601 233.3 601 200 601C166.7 601 133.3 601 100 601C66.7 601 33.3 601 16.7 601L0 601Z" fill="#34a4f3"></path><path d="M0 567L16.7 565.8C33.3 564.7 66.7 562.3 100 561.5C133.3 560.7 166.7 561.3 200 561.7C233.3 562 266.7 562 300 559.8C333.3 557.7 366.7 553.3 400 551.5C433.3 549.7 466.7 550.3 500 552.7C533.3 555 566.7 559 600 560.5C633.3 562 666.7 561 700 562.8C733.3 564.7 766.7 569.3 800 569.7C833.3 570 866.7 566 883.3 564L900 562L900 601L883.3 601C866.7 601 833.3 601 800 601C766.7 601 733.3 601 700 601C666.7 601 633.3 601 600 601C566.7 601 533.3 601 500 601C466.7 601 433.3 601 400 601C366.7 601 333.3 601 300 601C266.7 601 233.3 601 200 601C166.7 601 133.3 601 100 601C66.7 601 33.3 601 16.7 601L0 601Z" fill="#4895ef"></path></svg>