<svg id="visual" viewBox="0 0 1920 1080" width="1920" height="1080" xmlns="http://www.w3.org/2000/svg" xmlns:xlink="http://www.w3.org/1999/xlink" version="1.1"><rect x="0" y="0" width="1920" height="1080" fill="#fff"></rect><path d="M0 682L45.7 695.7C91.3 709.3 182.7 736.7 274.2 737.5C365.7 738.3 457.3 712.7 548.8 697.2C640.3 681.7 731.7 676.3 823 682.5C914.3 688.7 1005.7 706.3 1097 702.7C1188.3 699 1279.7 674 1371.2 667C1462.7 660 1554.3 671 1645.8 670C1737.3 669 1828.7 656 1874.3 649.5L1920 643L1920 1081L1874.3 1081C1828.7 1081 1737.3 1081 1645.8 1081C1554.3 1081 1462.7 1081 1371.2 1081C1279.7 1081 1188.3 1081 1097 1081C1005.7 1081 914.3 1081 823 1081C731.7 1081 640.3 1081 548.8 1081C457.3 1081 365.7 1081 274.2 1081C182.7 1081 91.3 1081 45.7 1081L0 1081Z" fill="#fcfcfc"></path><path d="M0 860L45.7 839C91.3 818 182.7 776 274.2 762.8C365.7 749.7 457.3 765.3 548.8 782.2C640.3 799 731.7 817 823 808C914.3 799 1005.7 763 1097 752.8C1188.3 742.7 1279.7 758.3 1371.2 756.7C1462.7 755 1554.3 736 1645.8 742C1737.3 748 1828.7 779 1874.3 794.5L1920 810L1920 1081L1874.3 1081C1828.7 1081 1737.3 1081 1645.8 1081C1554.3 1081 1462.7 1081 1371.2 1081C1279.7 1081 1188.3 1081 1097 1081C1005.7 1081 914.3 1081 823 1081C731.7 1081 640.3 1081 548.8 1081C457.3 1081 365.7 1081 274.2 1081C182.7 1081 91.3 1081 45.7 1081L0 1081Z" fill="#f8f8f8"></path><path d="M0 860L45.7 870.2C91.3 880.3 182.7 900.7 274.2 902C365.7 903.3 457.3 885.7 548.8 875.2C640.3 864.7 731.7 861.3 823 867.5C914.3 873.7 1005.7 889.3 1097 894C1188.3 898.7 1279.7 892.3 1371.2 892.7C1462.7 893 1554.3 900 1645.8 886.2C1737.3 872.3 1828.7 837.7 1874.3 820.3L1920 803L1920 1081L1874.3 1081C1828.7 1081 1737.3 1081 1645.8 1081C1554.3 1081 1462.7 1081 1371.2 1081C1279.7 1081 1188.3 1081 1097 1081C1005.7 1081 914.3 1081 823 1081C731.7 1081 640.3 1081 548.8 1081C457.3 1081 365.7 1081 274.2 1081C182.7 1081 91.3 1081 45.7 1081L0 1081Z" fill="#f5f5f5"></path><path d="M0 907L45.7 912.5C91.3 918 182.7 929 274.2 927.3C365.7 925.7 457.3 911.3 548.8 912.7C640.3 914 731.7 931 823 940.5C914.3 950 1005.7 952 1097 943.3C1188.3 934.7 1279.7 915.3 1371.2 916C1462.7 916.7 1554.3 937.3 1645.8 932.8C1737.3 928.3 1828.7 898.7 1874.3 883.8L1920 869L1920 1081L1874.3 1081C1828.7 1081 1737.3 1081 1645.8 1081C1554.3 1081 1462.7 1081 1371.2 1081C1279.7 1081 1188.3 1081 1097 1081C1005.7 1081 914.3 1081 823 1081C731.7 1081 640.3 1081 548.8 1081C457.3 1081 365.7 1081 274.2 1081C182.7 1081 91.3 1081 45.7 1081L0 1081Z" fill="#f2f2f2"></path><path d="M0 975L45.7 970.5C91.3 966 182.7 957 274.2 961.5C365.7 966 457.3 984 548.8 996.8C640.3 1009.7 731.7 1017.3 823 1021.5C914.3 1025.7 1005.7 1026.3 1097 1013.2C1188.3 1000 1279.7 973 1371.2 963.2C1462.7 953.3 1554.3 960.7 1645.8 964C1737.3 967.3 1828.7 966.7 1874.3 966.3L1920 966L1920 1081L1874.3 1081C1828.7 1081 1737.3 1081 1645.8 1081C1554.3 1081 1462.7 1081 1371.2 1081C1279.7 1081 1188.3 1081 1097 1081C1005.7 1081 914.3 1081 823 1081C731.7 1081 640.3 1081 548.8 1081C457.3 1081 365.7 1081 274.2 1081C182.7 1081 91.3 1081 45.7 1081L0 1081Z" fill="#efefef"></path></svg>