<svg xmlns="http://www.w3.org/2000/svg" width="20" height="20" viewBox="0 0 20 20" fill="none">
  <path d="M3.33331 5.83333H16.6666M8.33331 9.16667V14.1667M11.6666 9.16667V14.1667M4.16665 5.83333L4.99998 15.8333C4.99998 16.2754 5.17557 16.6993 5.48813 17.0118C5.8007 17.3244 6.22462 17.5 6.66665 17.5H13.3333C13.7753 17.5 14.1993 17.3244 14.5118 17.0118C14.8244 16.6993 15 16.2754 15 15.8333L15.8333 5.83333M7.49998 5.83333V3.33333C7.49998 3.11232 7.58778 2.90036 7.74406 2.74408C7.90034 2.5878 8.1123 2.5 8.33331 2.5H11.6666C11.8877 2.5 12.0996 2.5878 12.2559 2.74408C12.4122 2.90036 12.5 3.11232 12.5 3.33333V5.83333" stroke="#121212" stroke-width="2" stroke-linecap="round" stroke-linejoin="round"/>
</svg>
