<svg width="24" height="24" viewBox="0 0 24 24" fill="none" xmlns="http://www.w3.org/2000/svg">
<g clip-path="url(#clip0_175_86)">
<path fill-rule="evenodd" clip-rule="evenodd" d="M10.753 2.197C10.4792 2.10563 10.189 2.07459 9.90207 2.106C9.61518 2.13742 9.33849 2.23055 9.091 2.379L4.971 4.851C4.67485 5.0287 4.42976 5.28006 4.25959 5.5806C4.08943 5.88114 4 6.22063 4 6.566V20H3C2.73478 20 2.48043 20.1054 2.29289 20.2929C2.10536 20.4804 2 20.7348 2 21C2 21.2652 2.10536 21.5196 2.29289 21.7071C2.48043 21.8946 2.73478 22 3 22H21C21.2652 22 21.5196 21.8946 21.7071 21.7071C21.8946 21.5196 22 21.2652 22 21C22 20.7348 21.8946 20.4804 21.7071 20.2929C21.5196 20.1054 21.2652 20 21 20H20V6.72C19.9998 6.30054 19.8676 5.89177 19.6223 5.55152C19.377 5.21127 19.0309 4.95676 18.633 4.824L10.753 2.197ZM18 20V6.72L11 4.388V20H18ZM9 4.766L6 6.566V20H9V4.766Z" fill="#121212"/>
</g>
<defs>
<clipPath id="clip0_175_86">
<rect width="24" height="24" fill="white"/>
</clipPath>
</defs>
</svg>
