<svg width="22" height="22" viewBox="0 0 22 22" fill="none" xmlns="http://www.w3.org/2000/svg">
<path d="M14.4375 11.9166C14.4375 11.7343 14.3651 11.5594 14.2361 11.4305C14.1072 11.3016 13.9323 11.2291 13.75 11.2291H8.25C8.06766 11.2291 7.8928 11.3016 7.76386 11.4305C7.63493 11.5594 7.5625 11.7343 7.5625 11.9166C7.5625 12.099 7.63493 12.2738 7.76386 12.4028C7.8928 12.5317 8.06766 12.6041 8.25 12.6041H13.75C13.9323 12.6041 14.1072 12.5317 14.2361 12.4028C14.3651 12.2738 14.4375 12.099 14.4375 11.9166ZM14.4375 15.5833C14.4375 15.401 14.3651 15.2261 14.2361 15.0972C14.1072 14.9682 13.9323 14.8958 13.75 14.8958H8.25C8.06766 14.8958 7.8928 14.9682 7.76386 15.0972C7.63493 15.2261 7.5625 15.401 7.5625 15.5833C7.5625 15.7656 7.63493 15.9405 7.76386 16.0694C7.8928 16.1984 8.06766 16.2708 8.25 16.2708H13.75C13.9323 16.2708 14.1072 16.1984 14.2361 16.0694C14.3651 15.9405 14.4375 15.7656 14.4375 15.5833Z" fill="black"/>
<path fill-rule="evenodd" clip-rule="evenodd" d="M6.41659 2.0625C5.74802 2.0625 5.10683 2.32809 4.63409 2.80084C4.16134 3.27358 3.89575 3.91477 3.89575 4.58333V17.4167C3.89575 18.0852 4.16134 18.7264 4.63409 19.1992C5.10683 19.6719 5.74802 19.9375 6.41659 19.9375H15.5833C16.2518 19.9375 16.893 19.6719 17.3657 19.1992C17.8385 18.7264 18.1041 18.0852 18.1041 17.4167V7.304C18.1041 6.95475 17.9904 6.61558 17.7796 6.33692L15.0314 2.69958C14.8819 2.50169 14.6885 2.34117 14.4665 2.23062C14.2444 2.12008 13.9998 2.06253 13.7518 2.0625H6.41659ZM5.27075 4.58333C5.27075 3.95083 5.78409 3.4375 6.41659 3.4375H13.0624V7.46808C13.0624 7.84758 13.3704 8.15558 13.7499 8.15558H16.7291V17.4167C16.7291 18.0492 16.2158 18.5625 15.5833 18.5625H6.41659C5.78409 18.5625 5.27075 18.0492 5.27075 17.4167V4.58333Z" fill="black"/>
</svg>
