<svg width="22" height="22" viewBox="0 0 22 22" fill="none" xmlns="http://www.w3.org/2000/svg">
<path d="M19.2225 5.68481L11.66 1.54692C11.4579 1.43527 11.2309 1.37671 11 1.37671C10.7691 1.37671 10.5421 1.43527 10.34 1.54692L2.7775 5.68653C2.56153 5.8047 2.38125 5.97868 2.25547 6.19032C2.1297 6.40195 2.06306 6.64347 2.0625 6.88966V15.1087C2.06306 15.3549 2.1297 15.5964 2.25547 15.8081C2.38125 16.0197 2.56153 16.1937 2.7775 16.3118L10.34 20.4515C10.5421 20.5631 10.7691 20.6217 11 20.6217C11.2309 20.6217 11.4579 20.5631 11.66 20.4515L19.2225 16.3118C19.4385 16.1937 19.6188 16.0197 19.7445 15.8081C19.8703 15.5964 19.9369 15.3549 19.9375 15.1087V6.89051C19.9374 6.64389 19.871 6.40184 19.7452 6.18971C19.6194 5.97758 19.4389 5.80319 19.2225 5.68481ZM11 2.75005L17.9042 6.5313L15.3459 7.93208L8.44078 4.15083L11 2.75005ZM11 10.3125L4.09578 6.5313L7.00906 4.9363L13.9133 8.71755L11 10.3125ZM3.4375 7.73442L10.3125 11.4968V18.8693L3.4375 15.1096V7.73442ZM18.5625 15.1061L11.6875 18.8693V11.5002L14.4375 9.99544V13.0625C14.4375 13.2449 14.5099 13.4198 14.6389 13.5487C14.7678 13.6776 14.9427 13.75 15.125 13.75C15.3073 13.75 15.4822 13.6776 15.6111 13.5487C15.7401 13.4198 15.8125 13.2449 15.8125 13.0625V9.24262L18.5625 7.73442V15.1053V15.1061Z" fill="#121212"/>
</svg>
