<svg width="22" height="22" viewBox="0 0 22 22" fill="none" xmlns="http://www.w3.org/2000/svg">
<path fill-rule="evenodd" clip-rule="evenodd" d="M7.76378 6.84724C8.03227 6.57875 8.46757 6.57875 8.73605 6.84724L10.9999 9.1111L13.2638 6.84724C13.5323 6.57875 13.9676 6.57875 14.2361 6.84724C14.5045 7.11572 14.5045 7.55102 14.2361 7.81951L11.4861 10.5695C11.2176 10.838 10.7823 10.838 10.5138 10.5695L7.76378 7.81951C7.4953 7.55102 7.4953 7.11572 7.76378 6.84724ZM2.52075 13.75C2.52075 13.3703 2.82856 13.0625 3.20825 13.0625H18.7916C19.1713 13.0625 19.4791 13.3703 19.4791 13.75C19.4791 14.1297 19.1713 14.4375 18.7916 14.4375H3.20825C2.82856 14.4375 2.52075 14.1297 2.52075 13.75Z" fill="#121212"/>
<path fill-rule="evenodd" clip-rule="evenodd" d="M6.56556 3.58239C5.51838 3.72317 4.89933 3.98927 4.4443 4.4443C3.98924 4.89937 3.72316 5.51822 3.58239 6.56522C3.43896 7.63202 3.4375 9.03585 3.4375 11C3.4375 12.9637 3.43896 14.3675 3.58239 15.4344C3.72317 16.4816 3.98927 17.1007 4.4443 17.5557C4.89937 18.0108 5.51822 18.2768 6.56522 18.4176C7.63202 18.561 9.03585 18.5625 11 18.5625C12.9637 18.5625 14.3675 18.561 15.4344 18.4176C16.4816 18.2768 17.1007 18.0107 17.5557 17.5557C18.0108 17.1006 18.2768 16.4818 18.4176 15.4348C18.561 14.368 18.5625 12.9641 18.5625 11C18.5625 9.03632 18.561 7.63248 18.4176 6.56556C18.2768 5.51838 18.0107 4.89933 17.5557 4.4443C17.1006 3.98924 16.4818 3.72316 15.4348 3.58239C14.368 3.43896 12.9641 3.4375 11 3.4375C9.03632 3.4375 7.63248 3.43896 6.56556 3.58239ZM10.9478 2.0625H11.0522C12.9527 2.06249 14.449 2.06248 15.618 2.21965C16.8175 2.38092 17.7749 2.71893 18.528 3.47203C19.2811 4.22517 19.6191 5.18279 19.7804 6.38236C19.9375 7.5515 19.9375 9.04781 19.9375 10.9478V11.0522C19.9375 12.9526 19.9375 14.449 19.7803 15.618C19.6191 16.8175 19.2811 17.7749 18.528 18.528C17.7748 19.2811 16.8172 19.6191 15.6176 19.7804C14.4485 19.9375 12.9522 19.9375 11.0522 19.9375H10.9478C9.04736 19.9375 7.55104 19.9375 6.38201 19.7803C5.18249 19.6191 4.22513 19.2811 3.47203 18.528C2.7189 17.7748 2.38091 16.8172 2.21965 15.6176C2.06248 14.4485 2.06249 12.9522 2.0625 11.0522V10.9478C2.06249 9.04735 2.06248 7.55104 2.21965 6.38201C2.38092 5.18249 2.71893 4.22513 3.47203 3.47203C4.22517 2.7189 5.18279 2.38091 6.38236 2.21965C7.5515 2.06248 9.04781 2.06249 10.9478 2.0625Z" fill="#121212"/>
</svg>
