<svg width="22" height="22" viewBox="0 0 22 22" fill="none" xmlns="http://www.w3.org/2000/svg">
<path d="M11 11C12.094 11 13.1432 10.5654 13.9168 9.79182C14.6904 9.01823 15.125 7.96902 15.125 6.875C15.125 5.78098 14.6904 4.73177 13.9168 3.95818C13.1432 3.1846 12.094 2.75 11 2.75C9.90598 2.75 8.85677 3.1846 8.08318 3.95818C7.3096 4.73177 6.875 5.78098 6.875 6.875C6.875 7.96902 7.3096 9.01823 8.08318 9.79182C8.85677 10.5654 9.90598 11 11 11ZM13.75 6.875C13.75 7.60435 13.4603 8.30382 12.9445 8.81954C12.4288 9.33527 11.7293 9.625 11 9.625C10.2707 9.625 9.57118 9.33527 9.05546 8.81954C8.53973 8.30382 8.25 7.60435 8.25 6.875C8.25 6.14565 8.53973 5.44618 9.05546 4.93046C9.57118 4.41473 10.2707 4.125 11 4.125C11.7293 4.125 12.4288 4.41473 12.9445 4.93046C13.4603 5.44618 13.75 6.14565 13.75 6.875ZM19.25 17.875C19.25 19.25 17.875 19.25 17.875 19.25H4.125C4.125 19.25 2.75 19.25 2.75 17.875C2.75 16.5 4.125 12.375 11 12.375C17.875 12.375 19.25 16.5 19.25 17.875ZM17.875 17.8695C17.8736 17.5313 17.6633 16.5137 16.731 15.5815C15.8345 14.685 14.1474 13.75 11 13.75C7.85262 13.75 6.1655 14.685 5.269 15.5815C4.33675 16.5137 4.12775 17.5313 4.125 17.8695H17.875Z" fill="black"/>
</svg>
