<svg width="24" height="24" viewBox="0 0 24 24" fill="none" xmlns="http://www.w3.org/2000/svg">
<path fill-rule="evenodd" clip-rule="evenodd" d="M7.25926 3.34923C7.61868 3.76855 7.57012 4.39985 7.15079 4.75927L4.4707 7.0565L7.20711 9.79291C7.59763 10.1834 7.59763 10.8166 7.20711 11.2071C6.81658 11.5976 6.18342 11.5976 5.79289 11.2071L2.29289 7.70713C2.09593 7.51016 1.99005 7.23998 2.00074 6.96164C2.01143 6.6833 2.13772 6.42204 2.34921 6.24076L5.84921 3.24076C6.26854 2.88134 6.89984 2.9299 7.25926 3.34923Z" fill="black"/>
<path fill-rule="evenodd" clip-rule="evenodd" d="M2 7C2 6.44772 2.44772 6 3 6H14.497C18.4756 6 21.8393 9.23427 21.9942 13.2111L20.995 13.25L21.9942 13.211C21.9942 13.211 21.9942 13.211 21.9942 13.2111C22.1584 17.4146 18.6996 21 14.497 21H5.999C5.44672 21 4.999 20.5523 4.999 20C4.999 19.4477 5.44672 19 5.999 19H14.497C17.5674 19 20.1156 16.3554 19.9958 13.289L19.9958 13.2889C19.8827 10.3857 17.4014 8 14.497 8H3C2.44772 8 2 7.55228 2 7Z" fill="black"/>
</svg>
