<svg width="22" height="22" viewBox="0 0 22 22" fill="none" xmlns="http://www.w3.org/2000/svg">
<path fill-rule="evenodd" clip-rule="evenodd" d="M11 7.25C10.0054 7.25 9.05161 7.64509 8.34835 8.34835C7.64509 9.05161 7.25 10.0054 7.25 11C7.25 11.9946 7.64509 12.9484 8.34835 13.6517C9.05161 14.3549 10.0054 14.75 11 14.75C11.9946 14.75 12.9484 14.3549 13.6517 13.6517C14.3549 12.9484 14.75 11.9946 14.75 11C14.75 10.0054 14.3549 9.05161 13.6517 8.34835C12.9484 7.64509 11.9946 7.25 11 7.25ZM8.75 11C8.75 10.4033 8.98705 9.83097 9.40901 9.40901C9.83097 8.98705 10.4033 8.75 11 8.75C11.5967 8.75 12.169 8.98705 12.591 9.40901C13.0129 9.83097 13.25 10.4033 13.25 11C13.25 11.5967 13.0129 12.169 12.591 12.591C12.169 13.0129 11.5967 13.25 11 13.25C10.4033 13.25 9.83097 13.0129 9.40901 12.591C8.98705 12.169 8.75 11.5967 8.75 11Z" fill="black"/>
<path fill-rule="evenodd" clip-rule="evenodd" d="M10.975 0.25C10.53 0.25 10.159 0.25 9.85502 0.27C9.54428 0.28294 9.23782 0.347138 8.94802 0.46C8.61427 0.59809 8.31099 0.800573 8.05551 1.05589C7.80002 1.3112 7.59733 1.61434 7.45902 1.948C7.31402 2.298 7.27502 2.668 7.25902 3.07C7.25742 3.21702 7.2185 3.36123 7.14591 3.48909C7.07332 3.61695 6.96944 3.72428 6.84402 3.801C6.7149 3.8715 6.56998 3.90803 6.42287 3.90716C6.27576 3.90628 6.13129 3.86803 6.00302 3.796C5.64702 3.608 5.30702 3.457 4.93102 3.407C4.57296 3.3599 4.20914 3.38379 3.86031 3.4773C3.51149 3.57081 3.1845 3.73212 2.89802 3.952C2.65579 4.14688 2.44733 4.38034 2.28102 4.643C2.11102 4.897 1.92502 5.218 1.70302 5.603L1.67802 5.647C1.45502 6.032 1.27002 6.353 1.13602 6.627C0.996019 6.913 0.886019 7.195 0.846019 7.507C0.750619 8.22999 0.946299 8.96127 1.39002 9.54C1.62102 9.841 1.92202 10.06 2.26202 10.274C2.38878 10.3489 2.49439 10.4549 2.56891 10.5819C2.64344 10.7089 2.68442 10.8528 2.68802 11C2.68442 11.1472 2.64344 11.2911 2.56891 11.4181C2.49439 11.5451 2.38878 11.6511 2.26202 11.726C1.92202 11.94 1.62202 12.159 1.39002 12.46C1.17014 12.7465 1.00883 13.0735 0.915322 13.4223C0.821811 13.7711 0.797922 14.1349 0.845019 14.493C0.886019 14.805 0.995019 15.087 1.13502 15.373C1.27002 15.647 1.45502 15.968 1.67802 16.353L1.70302 16.397C1.92502 16.782 2.11102 17.103 2.28102 17.357C2.45802 17.62 2.64802 17.857 2.89802 18.047C3.18443 18.2671 3.51138 18.4285 3.86021 18.5222C4.20903 18.6159 4.5729 18.64 4.93102 18.593C5.30702 18.543 5.64702 18.393 6.00302 18.204C6.13114 18.1321 6.27544 18.0939 6.42237 18.093C6.56931 18.0921 6.71405 18.1286 6.84302 18.199C6.96914 18.2751 7.07367 18.3823 7.14666 18.5102C7.21966 18.6382 7.25868 18.7827 7.26002 18.93C7.27502 19.332 7.31402 19.702 7.46002 20.052C7.59811 20.3858 7.80059 20.689 8.05591 20.9445C8.31122 21.2 8.61436 21.4027 8.94802 21.541C9.23802 21.661 9.53802 21.708 9.85502 21.729C10.159 21.75 10.53 21.75 10.975 21.75H11.025C11.47 21.75 11.841 21.75 12.145 21.73C12.463 21.708 12.762 21.661 13.052 21.54C13.3858 21.4019 13.689 21.1994 13.9445 20.9441C14.2 20.6888 14.4027 20.3857 14.541 20.052C14.686 19.702 14.725 19.332 14.741 18.93C14.7425 18.7828 14.7813 18.6384 14.8539 18.5103C14.9265 18.3823 15.0305 18.2748 15.156 18.198C15.2852 18.1276 15.4302 18.0913 15.5773 18.0923C15.7244 18.0934 15.8688 18.1318 15.997 18.204C16.353 18.392 16.693 18.543 17.069 18.592C17.792 18.6874 18.5233 18.4917 19.102 18.048C19.352 17.856 19.542 17.62 19.719 17.357C19.889 17.103 20.075 16.782 20.297 16.397L20.322 16.353C20.545 15.968 20.73 15.647 20.864 15.373C21.004 15.087 21.114 14.804 21.154 14.493C21.2494 13.77 21.0537 13.0387 20.61 12.46C20.379 12.159 20.078 11.94 19.738 11.726C19.6113 11.6511 19.5056 11.5451 19.4311 11.4181C19.3566 11.2911 19.3156 11.1472 19.312 11C19.312 10.722 19.464 10.446 19.738 10.274C20.078 10.06 20.378 9.841 20.61 9.54C20.8299 9.25352 20.9912 8.92653 21.0847 8.5777C21.1782 8.22888 21.2021 7.86506 21.155 7.507C21.1074 7.19971 21.0094 6.90238 20.865 6.627C20.6943 6.29475 20.5132 5.96792 20.322 5.647L20.297 5.603C20.1143 5.27709 19.9216 4.95693 19.719 4.643C19.5527 4.38062 19.3442 4.14749 19.102 3.953C18.8156 3.73294 18.4887 3.57146 18.1398 3.47778C17.791 3.38409 17.4271 3.36004 17.069 3.407C16.693 3.457 16.353 3.607 15.997 3.796C15.8689 3.86786 15.7246 3.90601 15.5777 3.90688C15.4307 3.90776 15.286 3.87132 15.157 3.801C15.0312 3.72452 14.9269 3.6173 14.854 3.48942C14.7811 3.36154 14.7418 3.21721 14.74 3.07C14.725 2.668 14.686 2.298 14.54 1.948C14.4019 1.61425 14.1994 1.31097 13.9441 1.05549C13.6888 0.800001 13.3857 0.597314 13.052 0.459C12.762 0.339 12.462 0.292 12.145 0.271C11.841 0.25 11.47 0.25 11.025 0.25H10.975ZM9.52202 1.845C9.59902 1.813 9.71602 1.784 9.95702 1.767C10.204 1.75 10.524 1.75 11 1.75C11.476 1.75 11.796 1.75 12.043 1.767C12.284 1.784 12.401 1.813 12.478 1.845C12.785 1.972 13.028 2.215 13.155 2.522C13.195 2.618 13.228 2.769 13.241 3.126C13.271 3.918 13.68 4.681 14.406 5.1C15.132 5.52 15.997 5.492 16.698 5.122C17.014 4.955 17.161 4.908 17.265 4.895C17.5936 4.85158 17.9259 4.94043 18.189 5.142C18.255 5.193 18.339 5.28 18.474 5.48C18.613 5.686 18.773 5.963 19.011 6.375C19.249 6.787 19.408 7.065 19.517 7.287C19.624 7.504 19.657 7.62 19.667 7.703C19.7104 8.03157 19.6216 8.36392 19.42 8.627C19.356 8.71 19.242 8.814 18.94 9.004C18.268 9.426 17.812 10.162 17.812 11C17.812 11.838 18.268 12.574 18.94 12.996C19.242 13.186 19.356 13.29 19.42 13.373C19.622 13.636 19.71 13.968 19.667 14.297C19.657 14.38 19.623 14.497 19.517 14.713C19.408 14.936 19.249 15.213 19.011 15.625C18.773 16.037 18.612 16.314 18.474 16.52C18.339 16.72 18.255 16.807 18.189 16.858C17.9259 17.0596 17.5936 17.1484 17.265 17.105C17.161 17.092 17.015 17.045 16.698 16.878C15.998 16.508 15.132 16.48 14.406 16.899C13.68 17.319 13.271 18.082 13.241 18.874C13.228 19.231 13.195 19.382 13.155 19.478C13.0922 19.6298 13.0001 19.7677 12.8839 19.8839C12.7677 20.0001 12.6298 20.0922 12.478 20.155C12.401 20.187 12.284 20.216 12.043 20.233C11.796 20.25 11.476 20.25 11 20.25C10.524 20.25 10.204 20.25 9.95702 20.233C9.71602 20.216 9.59902 20.187 9.52202 20.155C9.37022 20.0922 9.2323 20.0001 9.11613 19.8839C8.99997 19.7677 8.90784 19.6298 8.84502 19.478C8.80502 19.382 8.77202 19.231 8.75902 18.874C8.72902 18.082 8.32002 17.319 7.59402 16.9C6.86802 16.48 6.00302 16.508 5.30202 16.878C4.98602 17.045 4.83902 17.092 4.73502 17.105C4.40645 17.1484 4.0741 17.0596 3.81102 16.858C3.74502 16.807 3.66102 16.72 3.52602 16.52C3.33793 16.2272 3.15885 15.9287 2.98902 15.625C2.75102 15.213 2.59202 14.935 2.48302 14.713C2.37602 14.496 2.34302 14.38 2.33302 14.297C2.2896 13.9684 2.37845 13.6361 2.58002 13.373C2.64402 13.29 2.75802 13.186 3.06002 12.996C3.73202 12.574 4.18802 11.838 4.18802 11C4.18802 10.162 3.73202 9.426 3.06002 9.004C2.75802 8.814 2.64402 8.71 2.58002 8.627C2.37845 8.36392 2.2896 8.03157 2.33302 7.703C2.34302 7.62 2.37702 7.503 2.48302 7.287C2.59202 7.064 2.75102 6.787 2.98902 6.375C3.22702 5.963 3.38802 5.686 3.52602 5.48C3.66102 5.28 3.74502 5.193 3.81102 5.142C4.0741 4.94043 4.40645 4.85158 4.73502 4.895C4.83902 4.908 4.98502 4.955 5.30202 5.122C6.00202 5.492 6.86802 5.52 7.59402 5.1C8.32002 4.681 8.72902 3.918 8.75902 3.126C8.77202 2.769 8.80502 2.618 8.84502 2.522C8.97202 2.215 9.21502 1.972 9.52202 1.845Z" fill="black"/>
</svg>
