<svg width="22" height="22" viewBox="0 0 22 22" fill="none" xmlns="http://www.w3.org/2000/svg">
<path d="M17.5523 2.72346C17.3889 2.4526 17.1585 2.22841 16.8833 2.07251C16.6081 1.9166 16.2974 1.83424 15.9811 1.83337H6.01875C5.37892 1.83337 4.77667 2.17437 4.44759 2.72346L1.96434 6.86129C1.8784 7.00375 1.83307 7.167 1.83325 7.33337C1.83691 8.21815 2.16279 9.0713 2.74992 9.73321V17.4167C2.74992 18.4278 3.57217 19.25 4.58325 19.25H17.4166C18.4277 19.25 19.2499 18.4278 19.2499 17.4167V9.73321C19.837 9.0713 20.1629 8.21815 20.1666 7.33337C20.1668 7.167 20.1214 7.00375 20.0355 6.86129L17.5523 2.72346ZM18.3186 7.56346C18.262 8.00604 18.0462 8.41288 17.7115 8.70794C17.3768 9.00299 16.9461 9.16608 16.4999 9.16671C15.4888 9.16671 14.6666 8.34446 14.6666 7.33337C14.6666 7.27104 14.6437 7.21604 14.6308 7.15737L14.6492 7.15371L13.9516 3.66671H15.9811L18.3186 7.56346ZM9.91734 3.66671H12.0816L12.8268 7.39296C12.7948 8.37562 11.9899 9.16671 10.9999 9.16671C10.0099 9.16671 9.20509 8.37562 9.173 7.39296L9.91734 3.66671ZM6.01875 3.66671H8.04825L7.35159 7.15371L7.36992 7.15737C7.35617 7.21604 7.33325 7.27104 7.33325 7.33337C7.33325 8.34446 6.511 9.16671 5.49992 9.16671C5.05373 9.16608 4.62304 9.00299 4.28834 8.70794C3.95364 8.41288 3.73783 8.00604 3.68125 7.56346L6.01875 3.66671ZM9.16659 17.4167V14.6667H12.8333V17.4167H9.16659ZM14.6666 17.4167V14.6667C14.6666 13.6556 13.8443 12.8334 12.8333 12.8334H9.16659C8.1555 12.8334 7.33325 13.6556 7.33325 14.6667V17.4167H4.58325V10.8699C4.8775 10.946 5.18092 11 5.49992 11C6.02042 11.0003 6.53498 10.8895 7.00921 10.675C7.48345 10.4605 7.90644 10.1472 8.24992 9.75612C8.92184 10.5188 9.90634 11 10.9999 11C12.0935 11 13.078 10.5188 13.7499 9.75612C14.0934 10.1472 14.5164 10.4605 14.9906 10.675C15.4649 10.8895 15.9794 11.0003 16.4999 11C16.8189 11 17.1223 10.946 17.4166 10.8699V17.4167H14.6666Z" fill="black"/>
</svg>
