<svg width="22" height="22" viewBox="0 0 22 22" fill="none" xmlns="http://www.w3.org/2000/svg">
<g clip-path="url(#clip0_112_6)">
<path d="M10.9967 2.33223e-06C4.93532 -0.00391872 -0.0104396 4.93687 1.65491e-05 10.9962C0.00524462 14.0078 1.06994 16.6221 3.20117 18.734C6.02955 21.5365 9.4644 22.5262 13.3593 21.7443C15.4364 21.3274 17.2409 20.3095 18.7406 18.802C20.8828 16.6485 21.9475 14.0332 22 11.2623C21.9809 4.9204 17.077 0.00392339 10.9967 2.33223e-06ZM20.3419 12.1673C20.3244 12.4308 20.2497 12.6807 20.2235 12.9405C20.2078 13.0966 20.1456 13.2456 20.108 13.3985C20.0502 13.6314 19.9828 13.8635 19.9012 14.0918C19.8061 14.3579 19.7054 14.6208 19.5894 14.8778C19.231 15.6719 18.7714 16.4049 18.2102 17.0702C17.5368 17.8683 16.751 18.5406 15.856 19.0793C15.3606 19.3773 14.842 19.6327 14.298 19.8317C14.1339 19.8918 13.9734 19.9663 13.798 19.9922C13.5901 20.0609 13.3768 20.1103 13.1672 20.1717C13.0106 20.2065 12.8553 20.2491 12.6972 20.2745C12.0052 20.3861 11.3096 20.4635 10.608 20.4227C10.2016 20.3992 9.79481 20.3654 9.39408 20.2839C9.34781 20.2745 9.29893 20.2773 9.25109 20.2745C9.04197 20.2287 8.83337 20.1806 8.62477 20.1328C8.57903 20.1223 8.53145 20.1174 8.49015 20.0918C8.06746 19.9697 7.65261 19.8272 7.24979 19.6492C6.48335 19.3109 5.76946 18.8849 5.11464 18.3631C4.23057 17.6586 3.4976 16.8169 2.9131 15.8523C2.60909 15.3504 2.36049 14.8179 2.1532 14.2656C2.01492 13.897 1.92055 13.5169 1.80396 13.1429C1.75221 12.9766 1.75299 12.7944 1.71456 12.6229C1.63562 12.2716 1.61366 11.9135 1.58569 11.5574C1.55432 11.1591 1.54544 10.7578 1.59772 10.3586C1.60687 10.2896 1.60922 10.2201 1.61392 10.1506C1.65287 9.55039 1.77782 8.96667 1.93963 8.38897C2.08001 7.88734 2.27057 7.40635 2.49564 6.9374C2.73221 6.44413 3.01243 5.97883 3.32716 5.53104C3.8071 4.84826 4.3767 4.25252 5.01479 3.71873C5.61811 3.21396 6.28469 2.80669 6.98917 2.46295C7.29135 2.31552 7.60085 2.17384 7.92081 2.07476C8.22692 1.98014 8.53668 1.88995 8.85036 1.81624C9.2592 1.72004 9.67849 1.68736 10.0868 1.59274C10.0993 1.58986 10.1129 1.59143 10.126 1.59169C10.573 1.59927 11.0198 1.54281 11.4665 1.57574C11.7977 1.60005 12.1325 1.61626 12.4572 1.67978C13.0114 1.78827 13.5679 1.88995 14.0986 2.10064C14.3487 2.19998 14.591 2.31891 14.8412 2.41145C15.3222 2.58973 15.7525 2.85322 16.1783 3.12718C16.8676 3.57025 17.4769 4.10822 18.0241 4.71756C18.4162 5.15436 18.7594 5.62619 19.0645 6.12809C19.3692 6.62972 19.6241 7.15436 19.8322 7.70174C19.9666 8.05568 20.0855 8.41642 20.1621 8.78683C20.2298 9.11411 20.2928 9.44295 20.3401 9.77493C20.4159 10.3061 20.4447 10.8381 20.4219 11.3721C20.4099 11.638 20.3594 11.903 20.3419 12.1673Z" fill="black"/>
<path d="M5.79846 13.1917C5.61705 13.02 5.47327 12.8265 5.48478 12.5617C5.49941 12.2266 5.74252 11.9129 6.04732 11.8261C6.14064 11.7995 6.22978 11.7851 6.32388 11.7851C9.4372 11.7848 12.5508 11.7869 15.6641 11.7825C16.0761 11.7819 16.3905 12.052 16.4721 12.3798C16.533 12.6242 16.4752 12.8464 16.3414 13.0482C15.8385 13.806 15.3303 14.5607 14.8247 15.3169C14.5589 15.7145 14.2394 15.7707 13.8842 15.6706C13.6526 15.6055 13.4882 15.4272 13.4014 15.1859C13.2858 14.8647 13.404 14.6035 13.5812 14.3474C13.7815 14.0577 13.9733 13.7621 14.1702 13.4701C14.183 13.451 14.1921 13.4338 14.1916 13.4113C14.1963 13.3854 14.1864 13.3695 14.1597 13.3666C14.1163 13.3616 14.0729 13.3645 14.0293 13.3645C11.4537 13.3642 8.87806 13.3634 6.30245 13.3661C6.11032 13.3661 5.94903 13.2999 5.79846 13.1917Z" fill="black"/>
<path d="M7.7499 8.64488C7.82518 8.64488 7.88008 8.64488 7.93523 8.64488C10.5174 8.64488 13.0998 8.64723 15.6819 8.64227C16.0743 8.64148 16.3971 8.90472 16.469 9.23356C16.5495 9.60109 16.3833 10.0295 15.9598 10.1699C15.8411 10.2094 15.7266 10.2146 15.608 10.2146C12.5163 10.2151 9.42445 10.2143 6.33283 10.2159C6.00712 10.2162 5.75199 10.0857 5.59933 9.80211C5.43961 9.50542 5.48039 9.21605 5.67174 8.93295C6.11429 8.27891 6.54038 7.61364 6.98242 6.95909C7.09926 6.78604 7.19755 6.59678 7.36485 6.45876C7.75147 6.13985 8.4353 6.29852 8.59946 6.82734C8.68154 7.0911 8.63187 7.31433 8.49019 7.53052C8.25127 7.89544 8.00764 8.25722 7.7499 8.64488Z" fill="black"/>
</g>
<defs>
<clipPath id="clip0_112_6">
<rect width="22" height="22.0029" fill="white"/>
</clipPath>
</defs>
</svg>
