<svg width="24" height="24" viewBox="0 0 24 24" fill="none" xmlns="http://www.w3.org/2000/svg">
<g clip-path="url(#clip0_112_6)">
<path d="M11.9965 2.54425e-06C5.38398 -0.00427497 -0.0113887 5.38568 1.80535e-05 11.9959C0.00572141 15.2813 1.16721 18.1332 3.49218 20.4371C6.5777 23.4944 10.3248 24.574 14.5738 23.7211C16.8397 23.2663 18.8083 22.1558 20.4443 20.5113C22.7812 18.162 23.9427 15.3089 24 12.2862C23.9792 5.36771 18.6295 0.00428006 11.9965 2.54425e-06ZM22.1912 13.2734C22.1721 13.5609 22.0905 13.8335 22.062 14.1169C22.0449 14.2872 21.977 14.4497 21.936 14.6166C21.873 14.8706 21.7994 15.1239 21.7104 15.3728C21.6066 15.6631 21.4968 15.95 21.3702 16.2303C20.9792 17.0967 20.4779 17.8963 19.8657 18.622C19.1311 19.4926 18.2738 20.2261 17.2974 20.8138C16.757 21.1389 16.1913 21.4175 15.5978 21.6345C15.4187 21.7001 15.2437 21.7814 15.0523 21.8096C14.8256 21.8846 14.5929 21.9385 14.3642 22.0055C14.1934 22.0435 14.024 22.0899 13.8515 22.1176C13.0966 22.2394 12.3378 22.3238 11.5724 22.2793C11.129 22.2536 10.6853 22.2168 10.2481 22.1279C10.1976 22.1176 10.1443 22.1207 10.0921 22.1176C9.86397 22.0677 9.63641 22.0152 9.40884 21.963C9.35894 21.9516 9.30704 21.9462 9.26198 21.9183C8.80086 21.7851 8.3483 21.6297 7.90886 21.4355C7.07275 21.0665 6.29395 20.6017 5.57961 20.0325C4.61517 19.2639 3.81556 18.3457 3.17793 17.2934C2.84628 16.7459 2.57508 16.165 2.34894 15.5625C2.19809 15.1604 2.09515 14.7457 1.96796 14.3377C1.9115 14.1563 1.91235 13.9575 1.87043 13.7705C1.78431 13.3872 1.76036 12.9965 1.72985 12.6081C1.69563 12.1735 1.68593 11.7358 1.74296 11.3003C1.75294 11.2251 1.75551 11.1492 1.76064 11.0733C1.80313 10.4186 1.93944 9.78183 2.11596 9.15161C2.2691 8.60437 2.47698 8.07966 2.72251 7.56807C2.98059 7.02996 3.28629 6.52236 3.62963 6.03387C4.1532 5.28901 4.77458 4.63911 5.47068 4.0568C6.12884 3.50614 6.85602 3.06185 7.62455 2.68685C7.9542 2.52602 8.29184 2.37146 8.64089 2.26338C8.97482 2.16015 9.31274 2.06177 9.65494 1.98135C10.1009 1.87641 10.5584 1.84076 11.0038 1.73753C11.0175 1.73439 11.0323 1.7361 11.0466 1.73639C11.5342 1.74466 12.0215 1.68306 12.5089 1.71899C12.8702 1.74551 13.2355 1.76319 13.5897 1.83249C14.1942 1.95083 14.8014 2.06177 15.3803 2.29161C15.6532 2.39997 15.9175 2.52973 16.1904 2.63067C16.7151 2.82516 17.1845 3.11261 17.649 3.41146C18.401 3.89482 19.0658 4.4817 19.6626 5.14642C20.0904 5.62294 20.4648 6.13767 20.7976 6.68519C21.1301 7.23243 21.4081 7.80476 21.6351 8.4019C21.7817 8.78802 21.9114 9.18155 21.995 9.58563C22.0689 9.94266 22.1376 10.3014 22.1892 10.6636C22.2719 11.243 22.3033 11.8233 22.2785 12.4059C22.2653 12.696 22.2103 12.9851 22.1912 13.2734Z" fill="black"/>
<path d="M6.32557 14.391C6.12766 14.2036 5.97082 13.9926 5.98337 13.7037C5.99934 13.3381 6.26454 12.9959 6.59705 12.9013C6.69886 12.8722 6.7961 12.8565 6.89876 12.8565C10.2951 12.8562 13.6917 12.8585 17.0881 12.8536C17.5375 12.8531 17.8806 13.1476 17.9695 13.5052C18.036 13.7719 17.973 14.0143 17.827 14.2344C17.2783 15.0611 16.7239 15.8844 16.1724 16.7094C15.8824 17.1431 15.5339 17.2044 15.1464 17.0952C14.8937 17.0242 14.7143 16.8297 14.6197 16.5665C14.4936 16.2161 14.6225 15.9312 14.8159 15.6517C15.0343 15.3357 15.2436 15.0132 15.4584 14.6947C15.4723 14.6739 15.4823 14.655 15.4817 14.6305C15.4869 14.6023 15.476 14.5849 15.4469 14.5818C15.3996 14.5763 15.3523 14.5795 15.3046 14.5795C12.4949 14.5792 9.68513 14.5783 6.87537 14.5812C6.66578 14.5812 6.48983 14.509 6.32557 14.391Z" fill="black"/>
<path d="M8.45439 9.43079C8.53652 9.43079 8.5964 9.43079 8.65657 9.43079C11.4735 9.43079 14.2906 9.43336 17.1075 9.42794C17.5356 9.42708 17.8877 9.71425 17.9662 10.073C18.054 10.4739 17.8726 10.9413 17.4107 11.0945C17.2812 11.1375 17.1563 11.1432 17.0268 11.1432C13.6541 11.1438 10.2812 11.1429 6.90849 11.1446C6.55318 11.1449 6.27485 11.0026 6.10831 10.6932C5.93408 10.3696 5.97856 10.0539 6.18731 9.74504C6.67009 9.03155 7.13492 8.3058 7.61714 7.59174C7.74461 7.40296 7.85183 7.1965 8.03434 7.04593C8.4561 6.69803 9.2021 6.87112 9.38118 7.44802C9.47073 7.73575 9.41655 7.97929 9.26198 8.21512C9.00134 8.61321 8.73556 9.00789 8.45439 9.43079Z" fill="black"/>
</g>
<defs>
<clipPath id="clip0_112_6">
<rect width="24" height="24.0031" fill="white"/>
</clipPath>
</defs>
</svg>
